<?xml version="1.0" encoding="iso-8859-1"?>
<!-- Generator: Adobe Illustrator 19.0.0, SVG Export Plug-In . SVG Version: 6.00 Build 0)  -->
<svg version="1.1" id="Capa_1" xmlns="http://www.w3.org/2000/svg" xmlns:xlink="http://www.w3.org/1999/xlink" x="0px" y="0px"
	 viewBox="0 0 490 490" style="enable-background:new 0 0 490 490;" xml:space="preserve">
<g id="Business_1_Bold_43_">
	<path d="M338.863,490c2.848-52.889,62.781-72.382,114.155-122.484c51.373-50.103,34.239-133.617,34.239-133.617
		c-34.239,8.345-19.983,33.412-34.239,77.941c-14.256,44.529-68.493,55.676-68.493,55.676s28.542-22.265,45.662-55.676
		c17.119-33.412-22.831-22.264-22.831-22.264s-19.983,27.838-91.324,77.941C244.692,417.618,281.778,490,281.778,490H338.863z"/>
	<path d="M151.132,490h57.07c0,0,37.102-72.382-34.239-122.484c-71.341-50.103-91.324-77.941-91.324-77.941
		s-39.95-11.132-22.831,22.264c17.119,33.412,45.662,55.676,45.662,55.676s-54.221-11.132-68.493-55.676s0-69.595-34.239-77.941
		c0,0-17.119,83.514,34.239,133.617C88.336,417.618,148.284,437.11,151.132,490z"/>
	<path d="M397.801,152.804C397.801,68.416,329.385,0,244.998,0S92.195,68.416,92.195,152.804
		c0,84.387,68.416,152.803,152.803,152.803S397.801,237.191,397.801,152.804z M244.998,274.982
		c-67.375,0-122.178-54.803-122.178-122.178c0-67.375,54.803-122.178,122.178-122.178s122.178,54.803,122.178,122.178
		C367.176,220.179,312.373,274.982,244.998,274.982z"/>
	<path d="M254.629,131.871V91.416c6.692,2.879,10.826,8.406,12.418,16.553l26.169-3.43c-1.792-10.351-5.926-18.605-12.418-24.776
		s-15.205-9.907-26.169-11.209V58.31h-15.006v10.244c-11.852,1.164-21.361,5.589-28.497,13.291
		c-7.136,7.687-10.703,17.181-10.703,28.497c0,11.163,3.154,20.672,9.463,28.497c6.309,7.825,16.231,13.674,29.737,17.548v43.35
		c-3.721-1.792-7.105-4.701-10.137-8.698c-3.032-3.997-5.099-8.743-6.201-14.271l-27.011,2.879
		c2.083,13.598,6.829,24.102,14.287,31.574c7.442,7.442,17.135,11.882,29.063,13.337v18.819h15.006v-19.34
		c13.444-1.945,23.934-7.182,31.498-15.726c7.564-8.544,11.331-19.064,11.331-31.559c0-11.178-3.001-20.335-9.004-27.471
		C282.452,142.161,271.182,136.358,254.629,131.871z M239.608,126.91c-4.486-1.93-7.824-4.471-10.03-7.61
		c-2.205-3.139-3.307-6.538-3.307-10.183c0-4.012,1.195-7.656,3.614-10.979c2.404-3.308,5.65-5.65,9.724-7.028L239.608,126.91z
		 M267.247,194.009c-3.246,3.828-7.457,6.217-12.617,7.182v-40.348c6.202,1.792,10.658,4.364,13.398,7.718
		c2.725,3.338,4.088,7.335,4.088,11.944C272.116,185.679,270.478,190.181,267.247,194.009z"/>
</g>
<g>
</g>
<g>
</g>
<g>
</g>
<g>
</g>
<g>
</g>
<g>
</g>
<g>
</g>
<g>
</g>
<g>
</g>
<g>
</g>
<g>
</g>
<g>
</g>
<g>
</g>
<g>
</g>
<g>
</g>
</svg>
