<?xml version="1.0" encoding="iso-8859-1"?>
<!-- Generator: Adobe Illustrator 18.0.0, SVG Export Plug-In . SVG Version: 6.00 Build 0)  -->
<!DOCTYPE svg PUBLIC "-//W3C//DTD SVG 1.1//EN" "http://www.w3.org/Graphics/SVG/1.1/DTD/svg11.dtd">
<svg version="1.1" id="Capa_1" xmlns="http://www.w3.org/2000/svg" xmlns:xlink="http://www.w3.org/1999/xlink" x="0px" y="0px"
	 viewBox="0 0 360 360" style="enable-background:new 0 0 360 360;" xml:space="preserve">
<path id="_x32_9-Theatre_Pillar" d="M289.879,21.713H70.121C25.785,21.713,0,53.106,0,91.833c0,38.725,31.391,70.122,70.121,70.122
	c4.133,0,8.175-0.383,12.111-1.071c12.633-3.485,21.939-15.072,21.939-28.799c0-16.479-13.404-29.884-29.883-29.884V82.923
	c27.108,0,49.16,22.055,49.16,49.162c0,21.877-14.367,40.442-34.159,46.798v159.405h42.999v-101.02
	c0-7.588,6.149-13.74,13.737-13.74c7.583,0,13.731,6.152,13.731,13.74v101.02h40.484v-101.02c0-7.588,6.148-13.74,13.732-13.74
	c7.587,0,13.736,6.152,13.736,13.74v101.02h42.999V178.979c-20.262-6.071-35.073-24.876-35.073-47.089
	c0-27.107,22.053-49.16,49.159-49.16v19.28c-16.478,0-29.88,13.404-29.88,29.88c0,13.99,9.663,25.761,22.665,28.993v-0.027
	c3.993,0.708,8.101,1.098,12.298,1.098c38.73,0,70.121-31.397,70.121-70.122C360,53.106,334.215,21.713,289.879,21.713z"/>
<g>
</g>
<g>
</g>
<g>
</g>
<g>
</g>
<g>
</g>
<g>
</g>
<g>
</g>
<g>
</g>
<g>
</g>
<g>
</g>
<g>
</g>
<g>
</g>
<g>
</g>
<g>
</g>
<g>
</g>
</svg>
